<svg width="40" height="40" viewBox="0 0 40 40" fill="none" xmlns="http://www.w3.org/2000/svg">
<path d="M9.86941 22.8819L9.88644 22.888C9.95638 22.9718 10.3632 24.1114 10.4746 24.3523C11.6482 26.8944 13.787 28.8636 16.4172 29.8238C19.0237 30.7773 21.9027 30.6531 24.4174 29.4788C26.5429 28.4897 28.2777 26.82 29.3469 24.7338C29.6519 24.135 29.8782 23.5097 30.1076 22.8794C30.7872 23.1054 31.4591 23.3676 32.1326 23.6116L36.2073 25.0857C35.9342 25.6528 35.7571 26.2762 35.4999 26.8546C34.7293 28.5888 33.67 30.1794 32.3677 31.5597C32.0963 31.8733 31.7831 32.1617 31.4784 32.4419C29.9291 33.8653 28.13 34.9898 26.1721 35.7593C21.9997 37.4121 17.3387 37.3225 13.233 35.5103C9.6813 33.9583 6.76515 31.2415 4.96614 27.8083C4.50397 26.9222 4.16884 26.0078 3.80554 25.0797C4.67539 24.7882 5.5352 24.4563 6.39809 24.1439C7.55543 23.7248 8.71828 23.3175 9.86941 22.8819ZM9.7533 23.1578L6.00907 24.5136C5.37216 24.7445 4.71896 24.9569 4.09158 25.2115C4.4015 26.0558 4.72656 26.8804 5.14197 27.6799C6.85744 30.9707 9.61361 33.6013 12.9807 35.1615C16.9956 37.0277 21.5884 37.2187 25.7443 35.6922C28.2942 34.756 30.4954 33.2349 32.3538 31.2645C34.0965 29.3128 35.0048 27.6499 35.9138 25.2127L32.3087 23.903C31.6202 23.6538 30.9321 23.3789 30.2352 23.1552C30.0258 23.7334 29.8117 24.2976 29.5311 24.8452C28.4404 26.9651 26.6761 28.6624 24.5156 29.6701C21.953 30.8689 19.0188 30.9989 16.3603 30.0312C13.6477 29.0438 11.4451 27.0084 10.2469 24.382C10.1238 24.1176 9.88057 23.3188 9.7533 23.1578Z" fill="white"/>
<path d="M9.44198 23.8011L9.48361 23.8255C9.57356 24.0676 9.67192 24.3065 9.7785 24.5418C10.991 27.2526 13.2287 29.3723 16.0012 30.4364C18.7778 31.496 21.8616 31.4105 24.5752 30.1982C27.374 28.9437 29.446 26.646 30.5317 23.7947C31.0774 23.9639 31.6162 24.1824 32.1536 24.377L35.2783 25.5089C34.5624 27.3862 33.5957 29.0533 32.2944 30.5863C30.5443 32.6151 28.3204 34.1803 25.8201 35.1432C21.8013 36.681 17.3369 36.5646 13.4039 34.8189C9.26777 32.9744 6.33999 29.7082 4.72668 25.5065L9.44198 23.8011ZM15.5222 34.4765L15.9918 34.583C16.1682 33.8871 16.2911 33.1763 16.4748 32.4827L16.4653 34.693L16.8664 34.7809C17.1822 34.1111 17.5068 33.444 17.8118 32.7694C17.7827 32.9052 17.7516 33.0409 17.7187 33.1759C17.5904 33.746 17.4778 34.3258 17.3313 34.8911C17.489 34.9251 17.6494 34.9546 17.8054 34.995L18.3899 32.4189L17.6219 32.2466C17.3559 32.8363 17.098 33.4318 16.8197 34.0157C16.8847 33.3802 16.8606 32.7134 16.8723 32.0735C16.6166 32.0175 16.3539 31.9697 16.1011 31.9025L15.5222 34.4765ZM6.81522 27.4361C7.03374 27.7797 7.25303 28.2311 7.5822 28.4761C7.83651 28.5922 8.04949 28.5759 8.30947 28.4809C8.73727 28.3243 9.39691 27.9339 9.60209 27.5094C9.69218 27.323 9.68923 27.1529 9.61455 26.9618C9.5042 26.6796 9.22526 26.2483 9.03039 26.0088L6.81522 27.4361ZM20.1757 35.1317C20.3918 35.071 20.5519 34.9831 20.6633 34.7792C20.8826 34.3784 20.8743 33.3666 20.7256 32.9387C20.6592 32.7477 20.5502 32.5865 20.3623 32.5C20.1638 32.4087 19.9293 32.4162 19.7155 32.4311C19.5055 32.48 19.3237 32.5553 19.2093 32.7491C18.974 33.1471 18.9632 34.0985 19.084 34.5382C19.141 34.7456 19.2419 34.9474 19.4377 35.054C19.6565 35.1731 19.9358 35.1612 20.1757 35.1317ZM22.6815 32.2153L23.4136 34.7486L23.8964 34.6068C24.2252 34.5145 24.6437 34.4334 24.8258 34.1107C24.9355 33.9166 24.9026 33.693 24.8378 33.4898C24.7974 33.3629 24.7232 33.2058 24.598 33.1423C24.5073 33.0965 24.3924 33.0867 24.2935 33.0704C24.2534 33.0636 24.2672 33.0707 24.2447 33.0545C24.2527 33.047 24.2606 33.0395 24.2685 33.0321C24.3971 32.9075 24.4694 32.7823 24.473 32.5998C24.4768 32.4026 24.393 32.2069 24.2537 32.0684C24.1418 31.9571 24.0287 31.9256 23.8754 31.913C23.48 31.933 23.0577 32.0966 22.6815 32.2153ZM24.9317 31.4896L26.136 33.8396L26.6089 33.5956C26.4534 33.3004 26.3008 33.0036 26.1511 32.7053L26.119 32.6344C26.168 32.5319 26.3109 32.4858 26.4142 32.4481C26.4905 32.4203 26.5543 32.4227 26.6281 32.4603C26.8288 32.5631 27.0209 33.0948 27.1882 33.2984C27.344 33.2197 27.5778 33.1376 27.7033 33.0215C27.6745 33.0012 27.643 32.9829 27.6148 32.9622C27.3464 32.7677 27.2625 32.0515 26.8507 32.0844C26.799 32.0888 26.7474 32.0942 26.6959 32.1007L26.6779 32.084L26.701 32.0545C26.8175 31.9018 26.8681 31.8024 26.8382 31.6043C26.8043 31.379 26.6736 31.1486 26.4819 31.0213C26.3668 30.945 26.2431 30.929 26.1076 30.9382C25.7111 31.0247 25.2938 31.3009 24.9317 31.4896ZM28.6147 32.4373L29.8189 31.5255L29.5837 31.2225L29.5464 31.1954C29.2773 31.3433 29.0164 31.5846 28.7738 31.7753L28.3428 31.2056C28.5797 31.0257 28.8145 30.8418 29.0544 30.6661L28.784 30.3257L28.0778 30.8615L27.7022 30.3634L28.4528 29.7903C28.3834 29.6984 28.2694 29.5005 28.1612 29.4625C27.7812 29.7584 27.3984 30.0502 27.0128 30.3386L28.6147 32.4373ZM10.2356 27.8174C10.0468 28.2528 9.73385 29.1293 9.45253 29.4724C9.26041 29.7068 8.9983 29.9138 8.7732 30.1191L9.1402 30.5076C9.43692 30.2226 9.74606 29.8436 10.1406 29.7082L11.5366 29.2057L11.1396 28.7849L10.1349 29.2135L10.6455 28.2519L10.2356 27.8174ZM29.5732 28.1298C29.2858 28.2547 29.0252 28.4694 28.9099 28.7693C28.842 28.9465 28.8447 29.1361 28.9299 29.3071C29.0235 29.4948 29.2159 29.6828 29.4171 29.7499C29.9699 29.9342 30.6342 29.091 30.9328 29.6817C30.9694 29.7543 30.9769 29.8375 30.9464 29.9138C30.9114 30.0024 30.8334 30.0658 30.7458 30.0987C30.6569 30.1323 30.5579 30.1398 30.47 30.0991C30.3937 30.0641 30.3336 30.0027 30.2735 29.9454C30.151 30.0774 30.0306 30.2124 29.905 30.3413C30.1225 30.5188 30.2657 30.6335 30.5569 30.6491C30.8571 30.5901 31.1059 30.3726 31.2704 30.1205C31.3895 29.9379 31.4618 29.7197 31.4126 29.5019C31.3654 29.2909 31.2049 29.0947 31.0217 28.9841C30.8517 28.8816 30.66 28.8755 30.472 28.9285C30.2097 29.0024 29.7904 29.3173 29.5267 29.1823C29.4449 29.1405 29.3608 29.052 29.3333 28.9634C29.3133 28.9 29.3089 28.8419 29.3391 28.7809C29.3818 28.6947 29.4714 28.6485 29.5606 28.6255C29.6777 28.5949 29.753 28.6309 29.8504 28.6947C29.8711 28.7083 29.8918 28.7222 29.9122 28.7364C30.0279 28.6166 30.1422 28.4952 30.2552 28.3728C30.0503 28.195 29.8993 28.1049 29.6173 28.126C29.6027 28.1272 29.5878 28.1286 29.5732 28.1298ZM11.9228 29.5389C11.4035 30.2467 10.8972 30.9694 10.3609 31.664C10.4889 31.7661 10.6208 31.8611 10.7547 31.9554C11.1269 31.4472 11.5082 30.9433 11.8708 30.4282C11.6673 31.0651 11.4867 31.7094 11.2834 32.3463L11.7678 32.7019C12.3273 32.028 12.7997 31.2724 13.337 30.5792L12.941 30.2864C12.573 30.7886 12.1724 31.2873 11.8377 31.8112C12.0445 31.1815 12.2248 30.5415 12.4142 29.9064C12.2499 29.7849 12.0834 29.6654 11.9228 29.5389ZM31.3335 26.2771L30.9623 26.0381C30.6597 26.5076 30.3692 26.9953 30.0482 27.452L30.4164 27.6914L30.7268 27.2064L32.1574 28.1274L32.5795 28.3995L32.8686 27.9564L31.0149 26.758C31.1208 26.5976 31.2233 26.4339 31.3335 26.2771ZM14.3986 31.1465C13.8159 31.8424 13.2496 32.5658 12.6428 33.2401C12.8118 33.3184 12.9799 33.4009 13.1507 33.4749L13.4915 33.0243L13.8796 33.2048L14.1285 33.3205C14.0884 33.5057 14.0512 33.6923 14.0007 33.8749C14.1684 33.9536 14.3352 34.0384 14.5057 34.1107L14.9948 31.4285L14.3986 31.1465Z" fill="white"/>
<path d="M8.97429 26.6819C8.99159 26.6867 9.01347 26.7043 9.02443 26.7167C9.12076 26.8251 9.20586 26.9806 9.18072 27.1285C9.14818 27.3199 8.99003 27.4611 8.84206 27.5723C8.56019 27.784 8.10973 28.1031 7.74087 28.0519C7.601 27.9531 7.51984 27.8101 7.42877 27.6687C7.95205 27.3567 8.46023 27.0097 8.97429 26.6819Z" fill="white"/>
<path d="M19.9015 32.7996C19.9508 32.8077 20.0031 32.8148 20.0503 32.8315C20.1183 32.8555 20.1689 32.9282 20.198 32.9913C20.3505 33.3207 20.3436 34.247 20.1943 34.5853C20.1444 34.6983 20.0855 34.7326 19.9743 34.7794C19.9048 34.7723 19.8139 34.7662 19.7516 34.7312C19.6708 34.6858 19.6373 34.6101 19.6118 34.5253C19.5107 34.1894 19.4942 33.2515 19.672 32.9492C19.7282 32.8535 19.7978 32.8257 19.9015 32.7996Z" fill="white"/>
<path d="M23.9096 33.3722C23.9676 33.3684 24.0189 33.3664 24.0758 33.384C24.1769 33.4156 24.2585 33.5031 24.3014 33.5978C24.3498 33.706 24.3529 33.8292 24.3103 33.9398C24.2639 34.0569 24.166 34.1041 24.0575 34.1533L23.8123 34.2242C23.7402 33.969 23.6658 33.7145 23.589 33.4611L23.9096 33.3722Z" fill="white"/>
<path d="M23.6309 32.3547C23.6611 32.3564 23.6988 32.3568 23.7285 32.3653C23.8162 32.3897 23.8897 32.4501 23.931 32.5312C23.9814 32.6289 23.9739 32.7456 23.9335 32.8457C23.8829 32.9709 23.7864 33.0045 23.6704 33.0557C23.6164 33.073 23.5797 33.0883 23.5224 33.0792C23.3887 32.957 23.3466 32.6184 23.2925 32.4416C23.4043 32.405 23.5161 32.3792 23.6309 32.3547Z" fill="white"/>
<path d="M25.9076 31.4329C25.9585 31.4275 26.0098 31.4204 26.0604 31.4322C26.1621 31.4556 26.2701 31.5293 26.319 31.6229C26.3717 31.7234 26.3651 31.8431 26.3293 31.9476C26.2722 32.1146 26.1432 32.1679 25.9973 32.2428L25.9545 32.2605C25.822 32.1797 25.6611 31.7546 25.5832 31.5985C25.6886 31.5391 25.7996 31.4875 25.9076 31.4329Z" fill="white"/>
<path d="M14.501 31.7002C14.4925 31.9805 14.3014 32.5912 14.2284 32.8885L13.9201 32.7395C13.8698 32.7171 13.8216 32.69 13.7729 32.6642C13.9807 32.3303 14.259 32.0124 14.501 31.7002Z" fill="white"/>
<path d="M18.8233 3.00891C19.255 2.99731 19.6893 3.00406 20.1212 3.00386C20.4367 3.00372 20.7605 2.9911 21.075 3.01227C21.3685 3.03205 21.6654 3.07973 21.9573 3.11729C23.6891 3.32304 25.3787 3.79499 26.9665 4.51642C30.4001 6.07106 33.2228 8.71824 34.994 12.0451C35.4429 12.8925 35.7897 13.7681 36.1266 14.6638L30.0489 16.8659C29.5997 15.6999 29.1199 14.6324 28.3568 13.6324C26.6028 11.3336 24.0497 9.92532 21.1991 9.54191C19.3304 9.32835 17.4386 9.62412 15.7242 10.3979C13.563 11.3686 11.7911 13.038 10.6935 15.1376C10.4023 15.6967 10.1814 16.2803 9.9583 16.8687L3.8739 14.661C4.04763 14.2584 4.18522 13.8394 4.35446 13.4345C4.70286 12.6003 5.11804 11.7956 5.59596 11.0283C7.89032 7.35938 11.4891 4.69558 15.6681 3.57281C16.3103 3.402 16.962 3.2692 17.6198 3.17507C18.005 3.12149 18.4146 3.10799 18.7917 3.01699C18.8023 3.01441 18.8128 3.01163 18.8233 3.00891ZM9.83527 16.5944C10.8928 13.722 12.7379 11.5374 15.5458 10.243C17.1094 9.52209 18.9656 9.12388 20.69 9.28393C23.474 9.44276 26.1485 10.7909 27.9994 12.8637C28.9872 13.9701 29.6577 15.2081 30.1717 16.5923L35.8487 14.5349C35.4619 13.5166 35.0428 12.5377 34.4986 11.5913C32.7206 8.54115 30.0316 6.12454 26.8098 4.68078C24.8557 3.80269 22.7504 3.30995 20.6096 3.2296C20.1873 3.21375 19.7386 3.19641 19.3177 3.23428C14.8265 3.43128 10.6012 5.4183 7.58491 8.7518C6.03787 10.4566 4.95449 12.385 4.15916 14.5363L9.83527 16.5944Z" fill="white"/>
<path d="M19.1649 3.73501C21.639 3.60882 24.1092 4.0488 26.3875 5.02149C29.6936 6.44136 32.4369 8.91478 34.1908 12.0564C34.5841 12.7614 34.9074 13.488 35.2064 14.2371C33.6394 14.8449 32.0332 15.3561 30.4652 15.962C29.9712 14.7296 29.3156 13.6029 28.4404 12.6005C26.5048 10.3753 23.768 9.00551 20.8266 8.78988C19.0785 8.69548 17.3894 8.92587 15.763 9.592C13.4567 10.5391 11.531 12.2265 10.2892 14.3885C9.99719 14.8966 9.76208 15.4219 9.53587 15.9619C9.05191 15.7583 8.54085 15.5962 8.04675 15.4172C6.96381 15.0251 5.87711 14.6411 4.79886 14.2363C5.509 12.4414 6.4521 10.8053 7.71609 9.34108C10.1042 6.57128 13.3584 4.69009 16.9505 4.00296C17.6858 3.86208 18.4193 3.7897 19.1649 3.73501ZM30.0462 12.6325C30.2925 13.0228 30.548 13.6052 30.983 13.7978C31.2361 13.8376 31.4553 13.7989 31.6674 13.6459C31.8011 13.5495 31.9069 13.4135 31.9263 13.2455C31.9348 13.1719 31.9259 13.0873 31.9042 13.0166L31.9174 13.022L31.894 12.9728C31.9375 12.9802 31.9609 12.9961 31.9975 13.0183C32.12 13.0924 32.2506 13.0983 32.3877 13.0598C32.5574 13.012 32.784 12.8699 32.8638 12.7064C32.9452 12.539 32.8987 12.3156 32.8326 12.152C32.7722 12.003 32.3911 11.3215 32.2761 11.2564C32.2656 11.2504 32.2585 11.2489 32.2479 11.2464L30.0462 12.6325ZM14.7902 5.80523C15.0685 6.63829 15.2979 7.48812 15.5646 8.32499L16.0306 8.18465C16.3618 8.08561 16.7848 7.99434 16.9681 7.66874C17.0689 7.48972 17.0439 7.31029 16.9852 7.12289C16.935 6.96318 16.8773 6.78935 16.7218 6.70124C16.6135 6.63982 16.479 6.70079 16.372 6.61047C16.505 6.46036 16.6042 6.36356 16.5959 6.14732C16.5865 5.95323 16.5015 5.77058 16.359 5.63846C16.2248 5.51454 16.0859 5.48214 15.9074 5.49198C15.5327 5.55119 15.1538 5.69529 14.7902 5.80523ZM8.10222 11.4162L7.73275 11.1815C7.4703 11.5932 7.21822 12.0178 6.94084 12.4193L9.16344 13.8412C9.25913 13.6921 9.35267 13.5411 9.45094 13.3938L9.15418 13.2044L8.48286 12.7788L8.96165 12.0308L8.59435 11.7948L8.11617 12.5412L7.59211 12.209C7.76173 11.9452 7.92592 11.6755 8.10222 11.4162ZM18.5791 7.05849C18.688 7.04635 18.7969 7.03359 18.9057 7.02015C18.9735 7.19988 19.0382 7.38073 19.0999 7.56264C19.2813 7.5417 19.464 7.5245 19.6447 7.4979C19.5294 7.20053 18.7364 5.04409 18.6441 4.96958L18.5763 4.97501C18.3887 4.99136 18.2014 5.01087 18.0144 5.03357C17.863 5.93023 17.7661 6.83784 17.6014 7.73178L18.1554 7.66548C18.1753 7.47774 18.1964 7.2901 18.2186 7.1026C18.3378 7.08774 18.4595 7.0664 18.5791 7.05849ZM9.26944 9.46809C9.00624 9.57789 8.76584 9.76763 8.64875 10.0343C8.56562 10.2236 8.56507 10.4264 8.6423 10.6177C8.82291 11.0651 9.53274 11.6965 9.98195 11.8694C10.1365 11.9288 10.2727 11.9331 10.4346 11.9076C10.7052 11.7806 10.961 11.5684 11.0669 11.2805C11.1414 11.0779 11.1164 10.8747 11.02 10.6841C10.7995 10.2482 10.0961 9.61596 9.62069 9.48003C9.5076 9.44773 9.38515 9.4536 9.26944 9.46809ZM12.4211 6.91822L12.6201 7.30327L13.129 7.04431C13.376 7.52046 13.6192 7.99865 13.8584 8.47877L14.1284 9.00415C14.285 8.92506 14.4458 8.84997 14.5987 8.76402C14.2681 8.11201 13.9258 7.46359 13.6074 6.80564C13.7788 6.71895 13.9492 6.62828 14.1224 6.54543C14.0639 6.43196 13.9955 6.25026 13.9089 6.1614L12.4211 6.91822ZM20.6472 7.1213C20.693 6.38782 20.751 5.65288 20.7802 4.91865C20.6043 4.91078 20.4272 4.9064 20.252 4.88937L20.0935 7.51978C20.5826 7.55531 21.0722 7.58418 21.562 7.60641C21.5699 7.46454 21.5739 7.32139 21.5915 7.18037C21.2769 7.15798 20.9621 7.1383 20.6472 7.1213ZM22.6407 5.12376C22.4325 5.97522 22.2592 6.83519 22.0589 7.68849C22.5356 7.80416 23.0139 7.91307 23.4937 8.01527C23.5256 7.87395 23.5563 7.73249 23.5946 7.59273C23.2866 7.52501 22.9758 7.46278 22.671 7.38172L23.1527 5.23763L22.6407 5.12376ZM11.4038 7.67854C11.1397 7.71563 10.8725 7.84925 10.706 8.0623C10.5733 8.23202 10.5153 8.44266 10.5492 8.65595C10.6226 9.11809 11.197 9.87047 11.5799 10.1294C11.7581 10.25 11.8905 10.2833 12.1005 10.2843C12.3896 10.2028 12.6843 10.032 12.8295 9.75945C12.9341 9.56289 12.9314 9.35035 12.8606 9.14289C12.7078 8.69521 12.1346 7.93007 11.6962 7.73545C11.6052 7.69503 11.5031 7.67736 11.4038 7.67854ZM29.0652 7.95063C28.9281 7.84555 28.787 7.71668 28.6391 7.62907L27.0348 9.71184L28.2017 10.6108L28.4659 10.2679C28.2192 10.0775 27.9747 9.86854 27.7164 9.69515C28.1643 9.11633 28.5929 8.50825 29.0652 7.95063ZM27.3637 7.83625C27.485 7.5779 27.5976 7.32169 27.4867 7.03556C27.401 6.81416 27.2042 6.65886 26.9876 6.57498C26.8071 6.50508 26.6493 6.49066 26.4588 6.50919C25.9765 6.69543 25.6898 7.28128 25.4923 7.72706C25.3739 7.99413 25.2539 8.33602 25.3717 8.62189C25.4633 8.84417 25.6983 9.00429 25.9145 9.08864C26.1084 9.16427 26.3326 9.18992 26.5259 9.09753C26.7556 8.98769 26.9142 8.71839 27.0375 8.50405L26.5689 8.25666C26.4769 8.40924 26.3883 8.56353 26.2525 8.68218C26.1521 8.72656 26.078 8.74149 25.9738 8.69732C25.9099 8.67017 25.857 8.6227 25.8306 8.55704C25.7342 8.31756 26.0407 7.79727 26.1534 7.59056C26.262 7.39132 26.4693 6.97747 26.7128 6.92908C26.7908 6.91357 26.8521 6.92586 26.915 6.97587C26.9804 7.02779 27.0139 7.09212 27.0247 7.17494C27.0417 7.30592 26.953 7.47459 26.8942 7.58785C27.05 7.67111 27.2049 7.75913 27.3637 7.83625ZM30.4703 9.15446C30.1059 9.49136 29.2186 10.2287 28.9672 10.5779C28.8823 10.6959 28.8209 10.8315 28.8148 10.9785C28.8043 11.2248 28.9526 11.4449 29.1205 11.612C29.277 11.7676 29.4636 11.8898 29.6916 11.887C29.8402 11.8852 29.9786 11.8298 30.1028 11.7519C30.4998 11.5036 31.1696 10.7947 31.552 10.4473L31.5985 10.3904C31.5754 10.2562 31.361 10.089 31.269 9.98407C31.0091 10.2263 29.83 11.4139 29.5701 11.4125C29.4873 11.4121 29.4157 11.3669 29.3628 11.3057C29.3085 11.2424 29.2851 11.1697 29.2926 11.0867C29.3143 10.8339 30.5914 9.76474 30.8463 9.53099C30.7607 9.43521 30.5833 9.19135 30.4703 9.15446Z" fill="white"/>
<path d="M11.2951 8.12451C11.5614 8.17062 11.7437 8.40834 11.9043 8.6102C12.0692 8.81762 12.4994 9.31877 12.4374 9.59253C12.4063 9.73005 12.2721 9.79289 12.1583 9.85155C12.1205 9.84524 12.0835 9.83595 12.0477 9.82203C11.7359 9.70094 11.1981 8.95561 11.0726 8.65129C11.0307 8.54977 11.0004 8.41482 11.0472 8.30981C11.0943 8.20411 11.1929 8.1616 11.2951 8.12451Z" fill="white"/>
<path d="M9.23587 9.93216C9.27302 9.92924 9.31035 9.92867 9.34757 9.93047C9.64833 9.94787 10.2592 10.5325 10.4587 10.7691C10.5554 10.8838 10.666 11.0539 10.6387 11.2128C10.6195 11.3241 10.5375 11.3831 10.4569 11.4518C10.4306 11.4538 10.4043 11.4556 10.3779 11.4557C10.0733 11.457 9.65963 11.0249 9.45231 10.8253C9.31041 10.6887 9.03194 10.4345 9.03914 10.2224C9.04355 10.0914 9.14626 10.0126 9.23587 9.93216Z" fill="white"/>
<path d="M31.3118 12.4678C31.3494 12.4772 31.3549 12.4927 31.3786 12.5212C31.4692 12.6301 31.5462 12.7371 31.5269 12.8864C31.5106 13.012 31.4472 13.1318 31.3406 13.2032C31.2259 13.2798 31.1157 13.293 30.9837 13.2652C30.8418 13.158 30.7536 13.0222 30.6576 12.8757C30.8747 12.7382 31.0929 12.6022 31.3118 12.4678Z" fill="white"/>
<path d="M32.2126 11.895C32.2496 11.9202 32.2734 11.9552 32.2998 11.9909C32.3772 12.0954 32.4315 12.2016 32.406 12.3344C32.3887 12.4258 32.3382 12.5073 32.2591 12.5575C32.1533 12.6248 32.0511 12.6313 31.9313 12.6069C31.8051 12.5108 31.7264 12.3841 31.6412 12.2534C31.8353 12.1415 32.0233 12.0148 32.2126 11.895Z" fill="white"/>
<path d="M15.9981 6.95333C16.0586 6.94855 16.1265 6.93976 16.1863 6.95313C16.287 6.97566 16.3811 7.06354 16.4289 7.15251C16.487 7.26098 16.4912 7.39348 16.4469 7.50786C16.4018 7.62424 16.3002 7.67667 16.1936 7.72709L15.9574 7.79987C15.8746 7.54895 15.8027 7.29305 15.7257 7.04019L15.9981 6.95333Z" fill="white"/>
<path d="M15.7304 5.936C15.7628 5.93617 15.8043 5.9339 15.8366 5.94106C15.9251 5.96074 16.0012 6.02297 16.0455 6.10128C16.0985 6.19476 16.1011 6.30894 16.066 6.40927C16.0226 6.53315 15.9317 6.5739 15.8181 6.62358C15.7633 6.64431 15.7153 6.6682 15.6554 6.65927C15.5108 6.54079 15.4695 6.20508 15.4119 6.02511C15.5166 5.99114 15.6241 5.96464 15.7304 5.936Z" fill="white"/>
<path d="M18.3806 5.47217C18.4603 5.58974 18.7569 6.47455 18.7558 6.59263L18.6292 6.61954L18.2549 6.65723C18.3163 6.26829 18.341 5.86424 18.3806 5.47217Z" fill="white"/>
<path d="M21.6518 11.2855C22.0699 11.2471 22.524 11.3095 22.926 11.4261C23.9096 11.7106 24.7395 12.375 25.2326 13.2724C25.7599 14.2355 25.8111 15.29 25.503 16.3301C25.8213 16.5419 26.1046 16.8515 26.3496 17.1421C27.4077 18.3971 27.8664 19.9721 27.7212 21.6013C27.5604 23.4447 26.675 25.1492 25.2591 26.3406C24.1824 27.2414 22.7696 27.7785 21.3549 27.6539C20.9216 27.9012 20.5189 28.2188 20.1139 28.5093C19.4472 28.0116 18.7454 27.5626 18.014 27.166C17.421 27.607 16.747 27.7677 16.0181 27.7466C15.4329 27.6858 14.8834 27.4903 14.4418 27.09C14.0992 26.7795 13.8232 26.3308 13.8084 25.8584C13.7973 25.5014 13.9458 25.2159 14.1816 24.9602C13.9818 24.6725 13.8095 24.3668 13.6669 24.047C13.2284 23.0429 13.2746 22.0604 13.6678 21.0512C13.2781 20.6984 13.0204 20.2895 12.9173 19.7697C12.6783 18.5657 13.2162 17.2826 13.8699 16.2985C13.7047 15.4692 13.4497 14.7888 12.9257 14.116L14.9015 12.1877L14.9009 13.6924C15.3917 13.7023 15.8841 13.6943 16.3752 13.6942L16.3754 12.2176L17.8885 12.2161L17.8897 13.6925L18.3145 13.6942C18.4824 13.3171 18.6732 12.9713 18.9401 12.6542C19.642 11.8199 20.5758 11.3794 21.6518 11.2855ZM22.0673 18.9302C20.9715 18.945 19.9947 18.6253 19.2008 17.8454C18.956 17.6026 18.7429 17.3298 18.5666 17.0335C18.1049 17.2804 17.6383 17.5182 17.1671 17.7467L17.2053 18.8205C17.7374 18.6319 18.2706 18.3151 18.6982 17.9467C18.7573 18.7887 18.8218 19.6288 18.8579 20.4723C18.913 22.1904 18.8538 23.9735 18.1113 25.5567C17.2379 25.1553 15.7535 24.6304 14.8268 24.9738C14.5932 25.0604 14.3906 25.2186 14.2852 25.4485C14.1647 25.7111 14.1938 26.0186 14.2968 26.2818C14.4697 26.7234 14.8494 27.0462 15.2789 27.2281C15.8845 27.4846 16.5327 27.4145 17.1289 27.1667C17.6157 26.9644 18.0293 26.6494 18.4229 26.3041C19.6641 27.1281 21.0085 27.5195 22.495 27.214C24.1575 26.8725 25.4348 25.7987 26.3436 24.405C27.2525 23.011 27.5407 21.2281 27.1961 19.6065C26.9511 18.4534 26.3555 17.3482 25.3688 16.6686C25.0943 17.2341 24.7545 17.6771 24.2784 18.0875C24.6878 18.3899 24.8402 18.8528 24.9127 19.3399C25.1599 20.9982 24.5931 22.8861 23.6056 24.2113C22.9331 25.1137 21.9933 25.8452 20.8532 26.0029C20.243 26.0873 19.6192 26.0108 19.0344 25.8242C20.4186 23.8911 21.6574 21.2835 22.0673 18.9302ZM14.8971 21.3049C15.423 21.387 15.9004 21.3417 16.3425 21.0218C16.7279 20.7429 16.9657 20.3479 17.1657 19.9253C16.6822 19.8656 16.2497 19.7766 15.9329 19.3696C15.6323 18.9834 15.5832 18.4746 15.6515 18.0043C15.8013 16.9735 16.4781 16.0807 17.2978 15.4733C17.5372 15.2982 17.7879 15.1391 18.0483 14.997C18.0525 14.8471 18.1677 14.2159 18.1499 14.1411C16.5203 14.5089 14.9109 15.304 13.9963 16.7584C13.4703 17.595 13.1011 18.7879 13.3309 19.7755C13.453 20.3003 13.7542 20.7565 14.2173 21.0399C14.428 21.1688 14.6572 21.2495 14.8971 21.3049ZM18.8884 13.2334C18.9491 13.6901 19.0065 14.1503 19.148 14.5907C19.5469 14.7033 19.9615 14.7513 20.3738 14.7866C20.5638 14.6571 20.7355 14.4378 20.9003 14.275C21.1539 14.0246 21.4252 13.7799 21.7073 13.5621C21.6741 13.15 21.6349 12.7355 21.6141 12.3227C21.1789 12.1871 20.7318 12.1382 20.2883 12.0416C19.7534 12.3702 19.2699 12.7273 18.8884 13.2334ZM21.399 18.541C21.9661 18.6542 22.7033 18.5445 23.2419 18.3505C23.47 18.0154 23.6782 17.6727 23.8548 17.3075C23.6718 17.1221 23.1137 16.3808 22.9783 16.3028C22.3522 16.4488 21.7473 16.602 21.0995 16.5995C20.8946 16.9429 20.6952 17.2719 20.4355 17.5778C20.7165 17.9439 21.052 18.2402 21.399 18.541ZM24.3851 13.9614C24.0347 14.215 23.6615 14.3971 23.2727 14.582C23.2834 15.1222 23.3127 15.7487 23.0581 16.2419C23.3208 16.5658 23.6055 17.0001 23.9348 17.2501C23.9675 17.2508 23.9925 17.2527 24.0242 17.2435C24.3988 17.0626 24.739 16.839 25.0832 16.6075C25.247 16.1565 25.3543 15.7373 25.3982 15.257C25.1128 14.8065 24.7953 14.3055 24.3851 13.9614ZM20.167 11.7701C19.598 12.0901 19.1398 12.4708 18.7682 13.0122C18.7265 13.073 18.6283 13.192 18.6117 13.2615C18.6083 13.2759 18.6087 13.2909 18.6072 13.3056L18.6161 13.3094C18.67 13.2879 18.7284 13.2654 18.7722 13.2264C18.9075 13.1058 19.0266 12.9445 19.1512 12.8108C19.3344 12.6142 19.5478 12.4375 19.7637 12.2782C19.8726 12.1979 20.1558 12.0794 20.1939 11.952C20.2081 11.9043 20.1973 11.8434 20.1918 11.7946L20.167 11.7701ZM21.601 18.8505C22.1672 18.8704 22.7942 18.8181 23.3097 18.5641L23.3239 18.5315C23.2889 18.4972 23.2568 18.461 23.2043 18.4573C23.1974 18.4568 23.1905 18.459 23.1836 18.4598C22.8072 18.5802 22.415 18.6438 22.0198 18.6485C21.9089 18.6505 21.5457 18.6108 21.468 18.6574C21.4605 18.6619 21.4317 18.7156 21.4306 18.719C21.4241 18.7381 21.4234 18.7721 21.4222 18.7928L21.4512 18.8326L21.601 18.8505ZM18.945 17.4008L19.0135 17.3286C18.9561 17.0885 18.7149 16.843 18.6102 16.6119C18.4713 16.3052 18.419 15.934 18.2685 15.6407C18.2159 15.7074 18.1903 15.7298 18.1998 15.8205C18.2415 16.2195 18.5937 17.1076 18.8969 17.3724C18.9186 17.3914 18.9211 17.3905 18.945 17.4008ZM19.1449 17.3062C19.5393 17.4137 19.9422 17.4871 20.3492 17.5255C20.5771 17.3984 20.8991 16.7697 21.0418 16.5296C20.7803 15.9863 20.5308 15.4561 20.3878 14.8667C19.9592 14.8344 19.5319 14.7892 19.1169 14.6724C18.8349 14.9535 18.6208 15.2826 18.3468 15.5675C18.5206 16.2001 18.7334 16.7859 19.1449 17.3062ZM24.5254 12.4744C24.1927 12.0923 23.333 11.5309 22.8181 11.4927C22.83 11.5607 22.8219 11.591 22.8856 11.6282C23.0987 11.7524 23.3684 11.8049 23.5901 11.9203C23.8183 12.0391 24.311 12.484 24.5254 12.4744ZM25.2328 16.6895C25.417 16.5525 25.5541 15.832 25.5875 15.5984C25.6039 15.4835 25.6345 15.3291 25.6051 15.2168L25.5783 15.1915C25.5165 15.2335 25.4881 15.2363 25.4742 15.3142C25.4217 15.6075 25.4066 15.8837 25.3219 16.1751C25.3013 16.2463 25.1652 16.5529 25.175 16.6053C25.1752 16.606 25.2168 16.6697 25.2187 16.6723C25.223 16.6784 25.2281 16.6838 25.2328 16.6895ZM24.378 12.5534C23.8821 12.1839 23.3923 11.8699 22.7923 11.6964C22.4022 11.8718 22.0307 12.0488 21.6942 12.3177C21.727 12.726 21.7568 13.1345 21.7838 13.5433C22.3573 13.7616 22.7304 14.0594 23.1886 14.4566C23.2301 14.4927 23.2275 14.5029 23.2859 14.4834C23.6553 14.3053 24.012 14.1319 24.3431 13.8866C24.3709 13.4444 24.4156 12.9958 24.378 12.5534Z" fill="white"/>
<path d="M15.6342 25.2732C16.3912 25.2094 17.1086 25.6556 17.7484 26.0043C17.4591 26.3323 17.1786 26.5619 16.7818 26.7487C16.3738 26.9045 15.8724 27.0197 15.4523 26.8474C15.2361 26.7587 15.0354 26.5944 14.947 26.3731C14.8741 26.1904 14.8901 25.9895 14.9726 25.8129C15.1047 25.5302 15.3524 25.3757 15.6342 25.2732ZM16.0784 26.5445C16.0139 26.437 15.6217 26.2929 15.4896 26.2363C15.4842 26.3258 15.4792 26.4092 15.5508 26.4771C15.6744 26.5944 15.9224 26.5654 16.0784 26.5445Z" fill="white"/>
<path d="M34.4395 18.3894C34.694 18.3717 35.0099 18.359 35.2315 18.5033C35.4398 18.639 35.5429 18.8979 35.5918 19.1317C35.6977 19.6382 35.734 20.5312 35.4259 20.9765C35.2861 21.1783 35.1398 21.2428 34.9061 21.286C34.6574 21.3075 34.3472 21.3162 34.1243 21.1905C33.9214 21.0761 33.8162 20.8346 33.7626 20.618C33.6374 20.1104 33.6096 19.1909 33.899 18.7337C34.0385 18.5135 34.1972 18.4446 34.4395 18.3894ZM34.7459 20.8449C34.9855 20.6025 34.8993 19.9034 34.8976 19.5716C34.8966 19.4025 34.924 19.0244 34.7941 18.8987C34.7381 18.8447 34.6506 18.8532 34.5783 18.8517C34.5393 18.8991 34.5036 18.9458 34.4877 19.006C34.4029 19.3209 34.4215 20.1661 34.4558 20.5028C34.466 20.6036 34.4782 20.7054 34.541 20.7878C34.6119 20.8368 34.6635 20.8396 34.7459 20.8449Z" fill="white"/>
<path d="M32.3456 18.3888C32.6303 18.3659 32.9812 18.361 33.2204 18.5386C33.4226 18.6885 33.4599 18.8874 33.4915 19.1203L32.7844 19.1213C32.7752 19.0677 32.7603 18.9754 32.7307 18.9296C32.6978 18.8782 32.6473 18.8525 32.5865 18.8534C32.5207 18.8543 32.4647 18.8728 32.423 18.9259C32.3093 19.0714 32.3548 19.3936 32.3585 19.574C32.3643 19.5681 32.3701 19.5621 32.3762 19.5563C32.3857 19.547 32.3955 19.5379 32.405 19.5285C32.4115 19.5224 32.4176 19.5159 32.4237 19.5098C32.5458 19.3915 32.7375 19.3339 32.9058 19.343C33.0755 19.3523 33.2336 19.4233 33.3473 19.5511C33.5414 19.7699 33.5468 20.0766 33.5305 20.3525C33.5241 20.555 33.4871 20.7551 33.3839 20.9322C33.2923 21.0893 33.1522 21.2049 32.9747 21.2506C32.6816 21.3261 32.255 21.3351 31.9914 21.1761C31.7915 21.0556 31.6894 20.8556 31.6334 20.6355C31.5299 20.2275 31.5276 19.0984 31.7566 18.7377C31.8998 18.5125 32.0993 18.4424 32.3456 18.3888ZM32.6327 20.848C32.7752 20.7121 32.7939 20.5185 32.7949 20.3286C32.7952 20.2097 32.7759 20.032 32.6843 19.9439C32.6334 19.8947 32.5635 19.8949 32.4973 19.8938C32.3674 20.0406 32.3385 20.2594 32.3467 20.4512C32.3511 20.5595 32.3799 20.7454 32.4783 20.8126C32.5211 20.8416 32.5828 20.8435 32.6327 20.848Z" fill="white"/>
<path d="M6.75864 18.3874C6.95154 18.3758 7.15353 18.3714 7.34178 18.4214C7.53637 18.4729 7.69011 18.575 7.78851 18.7529C8.02908 19.188 8.01846 20.2191 7.88474 20.6941C7.8257 20.904 7.72557 21.0874 7.52727 21.1916C7.26278 21.3305 6.78026 21.3342 6.49815 21.2396C6.2998 21.1731 6.18854 21.0547 6.09835 20.8703C6.07348 20.7723 6.06584 20.6722 6.05526 20.5718C6.21151 20.5712 6.64687 20.5165 6.76353 20.6051C6.77778 20.6549 6.79016 20.7209 6.81507 20.7658C6.84326 20.8166 6.8758 20.8375 6.9325 20.8434C6.99154 20.8495 7.07009 20.8236 7.10742 20.7779C7.22685 20.6316 7.18193 20.3124 7.1784 20.1298C7.08818 20.2241 6.9931 20.2816 6.868 20.3199C6.69787 20.372 6.52357 20.3609 6.3664 20.2745C6.19688 20.1812 6.08963 20.0151 6.04036 19.8313C5.95374 19.5081 5.97952 19.0372 6.16085 18.7517C6.30733 18.5212 6.50518 18.4426 6.75864 18.3874ZM7.04709 19.7907C7.17436 19.6474 7.20144 19.4251 7.19309 19.2374C7.18895 19.1439 7.16506 18.9818 7.09422 18.9123C7.03117 18.8505 6.96012 18.8516 6.87692 18.8545C6.75708 19.0091 6.72725 19.2817 6.7507 19.4733C6.76169 19.5635 6.79376 19.7112 6.87818 19.7634C6.92368 19.7915 6.99483 19.7888 7.04709 19.7907Z" fill="white"/>
<path d="M5.25957 18.3809L5.80233 18.3809L5.80182 21.2599L5.04526 21.2579L5.0437 19.3012L4.50149 19.3008L4.49881 18.8313C4.63769 18.8213 4.79791 18.8171 4.92871 18.767C5.11849 18.6942 5.18475 18.5552 5.25957 18.3809Z" fill="white"/>
</svg>
