<?xml version="1.0" standalone="no"?>
<!DOCTYPE svg PUBLIC "-//W3C//DTD SVG 20010904//EN"
 "http://www.w3.org/TR/2001/REC-SVG-20010904/DTD/svg10.dtd">
<svg version="1.0" xmlns="http://www.w3.org/2000/svg"
 width="80.000000pt" height="80.000000pt" viewBox="0 0 80.000000 80.000000"
 preserveAspectRatio="xMidYMid meet">

<g transform="translate(0.000000,80.000000) scale(0.100000,-0.100000)"
fill="#000000" stroke="none">
<path d="M365 715 c-5 -2 -26 -6 -45 -9 -19 -3 -52 -16 -73 -29 l-38 -23 80
-52 c93 -61 183 -141 237 -212 21 -28 41 -50 44 -50 4 0 16 17 27 37 19 35 20
41 7 66 -8 15 -24 56 -34 91 -40 129 -128 207 -205 181z"/>
<path d="M535 650 c18 -27 41 -73 50 -102 31 -98 37 -111 47 -95 4 9 11 43 15
77 6 59 5 62 -28 96 -28 30 -96 74 -113 74 -3 0 10 -22 29 -50z"/>
<path d="M163 607 c-39 -41 -54 -69 -69 -134 -11 -50 -11 -52 15 -76 51 -49
126 -77 244 -92 33 -4 58 -16 83 -37 l35 -31 41 41 41 41 -18 28 c-51 79 -190
202 -306 271 l-36 22 -30 -33z"/>
<path d="M671 539 c-1 -14 -7 -47 -15 -72 -13 -44 -13 -47 8 -60 53 -34 58
-32 51 25 -4 29 -15 71 -25 93 -16 36 -18 37 -19 14z"/>
<path d="M608 359 l-25 -43 31 -57 c17 -31 35 -55 40 -52 14 9 56 107 56 133
0 19 -8 29 -32 40 -18 7 -36 15 -39 17 -4 2 -18 -15 -31 -38z"/>
<path d="M87 352 c7 -52 50 -138 80 -162 45 -35 200 -20 258 25 20 15 20 15
-7 39 -17 16 -46 27 -75 31 -97 13 -144 28 -202 65 l-60 39 6 -37z"/>
<path d="M519 257 c-44 -41 -45 -43 -37 -82 5 -22 7 -50 5 -62 -4 -21 -3 -22
30 -8 39 16 84 47 102 69 11 13 7 25 -19 71 -17 30 -32 55 -33 55 -1 -1 -22
-20 -48 -43z"/>
<path d="M391 178 c-25 -11 -76 -23 -115 -27 l-71 -7 40 -21 c51 -26 147 -46
185 -38 34 7 44 30 34 80 -7 40 -12 41 -73 13z"/>
</g>
</svg>
